<mxfile host="app.diagrams.net" modified="2022-05-30T03:33:18.053Z" agent="5.0 (Windows NT 10.0; Win64; x64) AppleWebKit/537.36 (KHTML, like Gecko) Chrome/101.0.4951.64 Safari/537.36 Edg/101.0.1210.53" etag="eC2H7tlZziUnNi0Zoj9l" version="18.1.3" type="github">
  <diagram id="B1vGQFIsm8_bw8DCGbT4" name="Page-1">
    <mxGraphModel dx="965" dy="537" grid="1" gridSize="10" guides="1" tooltips="1" connect="1" arrows="1" fold="1" page="1" pageScale="1" pageWidth="827" pageHeight="1169" background="#DAD2D8" math="0" shadow="0">
      <root>
        <mxCell id="0" />
        <mxCell id="1" parent="0" />
        <mxCell id="eYDHGNVXZpsRCNoCBzfG-3" value="" style="html=1;shadow=0;dashed=0;align=center;verticalAlign=middle;shape=mxgraph.arrows2.calloutArrow;dy=10;dx=20;notch=60;arrowHead=10;" parent="1" vertex="1">
          <mxGeometry x="250" y="900" width="100" height="60" as="geometry" />
        </mxCell>
      </root>
    </mxGraphModel>
  </diagram>
</mxfile>
